<?xml version="1.0" encoding="utf-8"?>
<!-- Generator: Adobe Illustrator 24.3.2, SVG Export Plug-In . SVG Version: 6.00 Build 0)  -->
<svg version="1.1" id="Layer_1" xmlns="http://www.w3.org/2000/svg" xmlns:xlink="http://www.w3.org/1999/xlink" x="0px" y="0px"
	 viewBox="0 0 841.9 595.3" style="enable-background:new 0 0 841.9 595.3;" xml:space="preserve">
<style type="text/css">
	.st0{fill:#404041;}
	.st1{font-family:'InfiniteJustice';}
	.st2{font-size:58.6563px;}
	.st3{fill:url(#SVGID_1_);}
	.st4{fill:url(#SVGID_2_);}
	.st5{fill:url(#SVGID_3_);}
	.st6{fill:url(#SVGID_4_);}
	.st7{fill:url(#SVGID_5_);}
	.st8{fill:url(#SVGID_6_);}
	.st9{fill:url(#SVGID_7_);}
	.st10{fill:url(#SVGID_8_);}
	.st11{fill:url(#SVGID_9_);}
	.st12{fill:url(#SVGID_10_);}
	.st13{fill:url(#SVGID_11_);}
</style>
<g>
	<text transform="matrix(1 0 0 1 386.3772 317.6655)" class="st0 st1 st2">ANKA</text>
	<g>
		
			<linearGradient id="SVGID_1_" gradientUnits="userSpaceOnUse" x1="394.2908" y1="224.8656" x2="570.2385" y2="224.8656" gradientTransform="matrix(0.8651 0.5016 -0.5016 0.8651 84.8152 -226.1447)">
			<stop  offset="1.710494e-02" style="stop-color:#FFDE40"/>
			<stop  offset="0.2113" style="stop-color:#FCB940"/>
			<stop  offset="0.233" style="stop-color:#FBB13F"/>
			<stop  offset="0.3624" style="stop-color:#F78436"/>
			<stop  offset="0.4927" style="stop-color:#F35E30"/>
			<stop  offset="0.622" style="stop-color:#F0412B"/>
			<stop  offset="0.7498" style="stop-color:#EE2D27"/>
			<stop  offset="0.8758" style="stop-color:#EC2025"/>
			<stop  offset="0.9976" style="stop-color:#EC1C24"/>
		</linearGradient>
		<path class="st3" d="M381.2,253.8c3.2-0.1,6.4-0.4,9.6-0.9c11.8-1.9,24.4,0.1,35.5,6.6c10.1,5.8,17.5,14.4,22,24.3
			c2.1-33.5-33.9-51.1-81.7-73.3c-54.6-25.4-27-88.5-27-88.5C290.6,190.6,324,255,381.2,253.8L381.2,253.8z"/>
		
			<linearGradient id="SVGID_2_" gradientUnits="userSpaceOnUse" x1="320.7898" y1="258.3512" x2="496.7308" y2="258.3512" gradientTransform="matrix(0.9713 0.2378 -0.2378 0.9713 31.6723 -129.2438)">
			<stop  offset="1.710494e-02" style="stop-color:#FFDE40"/>
			<stop  offset="0.2113" style="stop-color:#FCB940"/>
			<stop  offset="0.233" style="stop-color:#FBB13F"/>
			<stop  offset="0.3624" style="stop-color:#F78436"/>
			<stop  offset="0.4927" style="stop-color:#F35E30"/>
			<stop  offset="0.622" style="stop-color:#F0412B"/>
			<stop  offset="0.7498" style="stop-color:#EE2D27"/>
			<stop  offset="0.8758" style="stop-color:#EC2025"/>
			<stop  offset="0.9976" style="stop-color:#EC1C24"/>
		</linearGradient>
		<path class="st4" d="M371.8,262.9c3.1-1,6.1-2.2,9-3.5c10.8-5.2,23.4-6.8,35.9-3.7c11.3,2.8,20.9,8.9,27.9,17.1
			c-7.4-32.7-46.9-39.5-99-47.3c-59.5-9-50.9-77.4-50.9-77.4C267.1,227.8,317.3,280.1,371.8,262.9L371.8,262.9z"/>
		
			<linearGradient id="SVGID_3_" gradientUnits="userSpaceOnUse" x1="241.7802" y1="269.3282" x2="417.7244" y2="269.3282" gradientTransform="matrix(0.999 -4.520703e-02 4.520703e-02 0.999 7.0616 -20.82)">
			<stop  offset="1.710494e-02" style="stop-color:#FFDE40"/>
			<stop  offset="0.2113" style="stop-color:#FCB940"/>
			<stop  offset="0.233" style="stop-color:#FBB13F"/>
			<stop  offset="0.3624" style="stop-color:#F78436"/>
			<stop  offset="0.4927" style="stop-color:#F35E30"/>
			<stop  offset="0.622" style="stop-color:#F0412B"/>
			<stop  offset="0.7498" style="stop-color:#EE2D27"/>
			<stop  offset="0.8758" style="stop-color:#EC2025"/>
			<stop  offset="0.9976" style="stop-color:#EC1C24"/>
		</linearGradient>
		<path class="st5" d="M365.4,274.3c2.7-1.8,5.2-3.8,7.6-5.9c8.9-8,20.5-13.1,33.4-13.7c11.6-0.5,22.5,2.7,31.6,8.6
			c-16.4-29.3-56.1-24.7-108.4-17.5c-59.7,8.2-70.6-59.9-70.6-59.9C255,270.1,317.9,306.1,365.4,274.3
			C365.4,274.3,365.4,274.3,365.4,274.3z"/>
		
			<linearGradient id="SVGID_4_" gradientUnits="userSpaceOnUse" x1="162.4162" y1="258.1788" x2="338.3628" y2="258.1788" gradientTransform="matrix(0.9458 -0.3246 0.3246 0.9458 14.2128 89.496)">
			<stop  offset="1.710494e-02" style="stop-color:#FFDE40"/>
			<stop  offset="0.2113" style="stop-color:#FCB940"/>
			<stop  offset="0.233" style="stop-color:#FBB13F"/>
			<stop  offset="0.3624" style="stop-color:#F78436"/>
			<stop  offset="0.4927" style="stop-color:#F35E30"/>
			<stop  offset="0.622" style="stop-color:#F0412B"/>
			<stop  offset="0.7498" style="stop-color:#EE2D27"/>
			<stop  offset="0.8758" style="stop-color:#EC2025"/>
			<stop  offset="0.9976" style="stop-color:#EC1C24"/>
		</linearGradient>
		<path class="st6" d="M362.5,287c2.1-2.5,4-5.1,5.6-7.8c6.3-10.2,16-18.3,28.2-22.5c11-3.8,22.4-3.8,32.7-0.7
			c-23.9-23.5-60.8-7.9-108.9,13.7c-54.9,24.6-84.6-37.6-84.6-37.6C255.4,314,325.8,330.9,362.5,287C362.5,287,362.5,287,362.5,287z
			"/>
		
			<linearGradient id="SVGID_5_" gradientUnits="userSpaceOnUse" x1="89.2784" y1="224.7721" x2="265.2218" y2="224.7721" gradientTransform="matrix(0.8162 -0.5777 0.5777 0.8162 52.4321 193.5589)">
			<stop  offset="1.710494e-02" style="stop-color:#FFDE40"/>
			<stop  offset="0.2113" style="stop-color:#FCB940"/>
			<stop  offset="0.233" style="stop-color:#FBB13F"/>
			<stop  offset="0.3624" style="stop-color:#F78436"/>
			<stop  offset="0.4927" style="stop-color:#F35E30"/>
			<stop  offset="0.622" style="stop-color:#F0412B"/>
			<stop  offset="0.7498" style="stop-color:#EE2D27"/>
			<stop  offset="0.8758" style="stop-color:#EC2025"/>
			<stop  offset="0.9976" style="stop-color:#EC1C24"/>
		</linearGradient>
		<path class="st7" d="M363.2,300c1.3-2.9,2.4-6,3.2-9.1c3.2-11.5,10.2-22.1,20.7-29.6c9.5-6.7,20.4-9.9,31.2-9.9
			c-29.6-15.8-60.6,9.5-100.7,43.8c-45.8,39.1-91.8-12.3-91.8-12.3C268,356.1,340.4,352.5,363.2,300L363.2,300z"/>
		
			<linearGradient id="SVGID_6_" gradientUnits="userSpaceOnUse" x1="28.4104" y1="171.9108" x2="204.348" y2="171.9108" gradientTransform="matrix(0.6206 -0.7841 0.7841 0.6206 118.6257 282.7152)">
			<stop  offset="1.710494e-02" style="stop-color:#FFDE40"/>
			<stop  offset="0.2113" style="stop-color:#FCB940"/>
			<stop  offset="0.233" style="stop-color:#FBB13F"/>
			<stop  offset="0.3624" style="stop-color:#F78436"/>
			<stop  offset="0.4927" style="stop-color:#F35E30"/>
			<stop  offset="0.622" style="stop-color:#F0412B"/>
			<stop  offset="0.7498" style="stop-color:#EE2D27"/>
			<stop  offset="0.8758" style="stop-color:#EC2025"/>
			<stop  offset="0.9976" style="stop-color:#EC1C24"/>
		</linearGradient>
		<path class="st8" d="M367.6,312.3c0.4-3.2,0.6-6.4,0.5-9.6c-0.2-12,3.6-24.1,11.6-34.2c7.2-9.1,16.8-15.3,27.2-18.3
			c-32.9-6.9-55.4,26.2-84.3,70.3c-32.9,50.4-91.5,14-91.5,14C292.1,392.9,360.5,369.1,367.6,312.3L367.6,312.3z"/>
		
			<linearGradient id="SVGID_7_" gradientUnits="userSpaceOnUse" x1="-14.6078" y1="104.7467" x2="161.338" y2="104.7467" gradientTransform="matrix(0.3748 -0.9271 0.9271 0.3748 206.4184 349.8509)">
			<stop  offset="1.710494e-02" style="stop-color:#FFDE40"/>
			<stop  offset="0.2113" style="stop-color:#FCB940"/>
			<stop  offset="0.233" style="stop-color:#FBB13F"/>
			<stop  offset="0.3624" style="stop-color:#F78436"/>
			<stop  offset="0.4927" style="stop-color:#F35E30"/>
			<stop  offset="0.622" style="stop-color:#F0412B"/>
			<stop  offset="0.7498" style="stop-color:#EE2D27"/>
			<stop  offset="0.8758" style="stop-color:#EC2025"/>
			<stop  offset="0.9976" style="stop-color:#EC1C24"/>
		</linearGradient>
		<path class="st9" d="M375.2,322.9c-0.5-3.2-1.3-6.3-2.2-9.4c-3.6-11.4-3.4-24.1,1.5-36.1c4.4-10.8,11.8-19.4,20.9-25.2
			c-33.5,2.7-45.8,40.7-61.1,91.2c-17.4,57.6-83.9,39.2-83.9,39.2C325.5,421.5,384.4,379.4,375.2,322.9
			C375.2,322.9,375.2,322.9,375.2,322.9z"/>
		
			<linearGradient id="SVGID_8_" gradientUnits="userSpaceOnUse" x1="-37.1204" y1="27.7026" x2="138.8273" y2="27.7026" gradientTransform="matrix(9.867646e-02 -0.9951 0.9951 9.867646e-02 310.0501 389.467)">
			<stop  offset="1.710494e-02" style="stop-color:#FFDE40"/>
			<stop  offset="0.2113" style="stop-color:#FCB940"/>
			<stop  offset="0.233" style="stop-color:#FBB13F"/>
			<stop  offset="0.3624" style="stop-color:#F78436"/>
			<stop  offset="0.4927" style="stop-color:#F35E30"/>
			<stop  offset="0.622" style="stop-color:#F0412B"/>
			<stop  offset="0.7498" style="stop-color:#EE2D27"/>
			<stop  offset="0.8758" style="stop-color:#EC2025"/>
			<stop  offset="0.9976" style="stop-color:#EC1C24"/>
		</linearGradient>
		<path class="st10" d="M385.6,330.9c-1.4-2.9-3-5.7-4.8-8.4c-6.6-10-10-22.2-8.7-35.1c1.1-11.6,5.9-21.9,13-30
			c-31.4,12-32.5,52-32.9,104.7c-0.5,60.2-69.4,61.2-69.4,61.2C365.6,439.5,410.3,382.5,385.6,330.9
			C385.6,330.9,385.6,330.9,385.6,330.9z"/>
		
			<linearGradient id="SVGID_9_" gradientUnits="userSpaceOnUse" x1="-37.9875" y1="-52.966" x2="137.9452" y2="-52.966" gradientTransform="matrix(-0.1855 -0.9827 0.9827 -0.1855 420.865 397.295)">
			<stop  offset="1.710494e-02" style="stop-color:#FFDE40"/>
			<stop  offset="0.2113" style="stop-color:#FCB940"/>
			<stop  offset="0.233" style="stop-color:#FBB13F"/>
			<stop  offset="0.3624" style="stop-color:#F78436"/>
			<stop  offset="0.4927" style="stop-color:#F35E30"/>
			<stop  offset="0.622" style="stop-color:#F0412B"/>
			<stop  offset="0.7498" style="stop-color:#EE2D27"/>
			<stop  offset="0.8758" style="stop-color:#EC2025"/>
			<stop  offset="0.9976" style="stop-color:#EC1C24"/>
		</linearGradient>
		<path class="st11" d="M397.7,335.6c-2.1-2.4-4.5-4.6-6.9-6.7c-9.2-7.7-15.9-18.5-18.2-31.2c-2.2-11.4-0.5-22.7,4-32.5
			c-26.7,20.3-16.5,59-2.1,109.8c16.5,57.9-49.4,78.3-49.4,78.3C409.1,445.5,436,378.2,397.7,335.6L397.7,335.6z"/>
		
			<linearGradient id="SVGID_10_" gradientUnits="userSpaceOnUse" x1="-15.6502" y1="-129.6404" x2="160.2823" y2="-129.6404" gradientTransform="matrix(-0.4546 -0.8907 0.8907 -0.4546 528.7423 374.4664)">
			<stop  offset="1.710494e-02" style="stop-color:#FFDE40"/>
			<stop  offset="0.2113" style="stop-color:#FCB940"/>
			<stop  offset="0.233" style="stop-color:#FBB13F"/>
			<stop  offset="0.3624" style="stop-color:#F78436"/>
			<stop  offset="0.4927" style="stop-color:#F35E30"/>
			<stop  offset="0.622" style="stop-color:#F0412B"/>
			<stop  offset="0.7498" style="stop-color:#EE2D27"/>
			<stop  offset="0.8758" style="stop-color:#EC2025"/>
			<stop  offset="0.9976" style="stop-color:#EC1C24"/>
		</linearGradient>
		<path class="st12" d="M410.7,336.8c-2.7-1.7-5.6-3.2-8.6-4.5c-11-4.8-20.4-13.3-26.3-24.8c-5.3-10.4-6.9-21.6-5.3-32.3
			c-19.9,27,0.8,61.3,28.9,105.9c32.1,50.9-25.3,89-25.3,89C452.6,439,459.4,366.8,410.7,336.8L410.7,336.8z"/>
		
			<linearGradient id="SVGID_11_" gradientUnits="userSpaceOnUse" x1="28.195" y1="-197.4893" x2="204.1352" y2="-197.4893" gradientTransform="matrix(-0.6869 -0.7268 0.7268 -0.6869 626.814 322.4255)">
			<stop  offset="1.710494e-02" style="stop-color:#FFDE40"/>
			<stop  offset="0.2113" style="stop-color:#FCB940"/>
			<stop  offset="0.233" style="stop-color:#FBB13F"/>
			<stop  offset="0.3624" style="stop-color:#F78436"/>
			<stop  offset="0.4927" style="stop-color:#F35E30"/>
			<stop  offset="0.622" style="stop-color:#F0412B"/>
			<stop  offset="0.7498" style="stop-color:#EE2D27"/>
			<stop  offset="0.8758" style="stop-color:#EC2025"/>
			<stop  offset="0.9976" style="stop-color:#EC1C24"/>
		</linearGradient>
		<path class="st13" d="M423.5,334.2c-3.1-0.9-6.3-1.5-9.5-1.9c-11.9-1.5-23.3-7-32.2-16.4c-8-8.4-12.7-18.8-14.2-29.5
			c-11.5,31.5,18,58.6,57.5,93.5c45.1,39.8,0.7,92.6,0.7,92.6C492.5,420.5,478.7,349.4,423.5,334.2L423.5,334.2z"/>
	</g>
</g>
</svg>
