<?xml version="1.0" encoding="utf-8"?>
<!-- Generator: Adobe Illustrator 24.3.2, SVG Export Plug-In . SVG Version: 6.00 Build 0)  -->
<svg version="1.1" id="Layer_1" xmlns="http://www.w3.org/2000/svg" xmlns:xlink="http://www.w3.org/1999/xlink" x="0px" y="0px"
	 viewBox="0 0 841.9 595.3" style="enable-background:new 0 0 841.9 595.3;" xml:space="preserve">
<style type="text/css">
	.st0{fill:url(#SVGID_1_);}
	.st1{fill:none;}
	.st2{fill:#404041;}
	.st3{font-family:'FalconsFont';}
	.st4{font-size:57.5862px;}
	.st5{letter-spacing:-1;}
</style>
<g>
	
		<linearGradient id="SVGID_1_" gradientUnits="userSpaceOnUse" x1="-77.3786" y1="498.3846" x2="-77.3786" y2="96.0178" gradientTransform="matrix(-1 0 0 1 344.0681 0)">
		<stop  offset="0.4622" style="stop-color:#E6252D"/>
		<stop  offset="0.9011" style="stop-color:#FDCD0D"/>
	</linearGradient>
	<path class="st0" d="M295.7,308.3h-0.3l7.8,8.4h237.2l6.4-7.8h0c0,0,25.8-34,15.8-68.7c0,0-5.3,35.6-50.2,44.3
		c0,0,98.4-54.3,1.4-188.5c0,0,57.3,103.6,0.9,157.7c0,0,29.4-88.8-44.3-107.7c0,0,45,23.5,38.3,72.6c0,0-4.8-20.5-30.1-23.3
		c0,0,23.5,12.1,23.5,37.7c0,0-0.5,16-11.4,21.7c-10.3,5.4-28.9,15-33.9,31c-0.3,1-0.8,2.1-0.5,3c0.3,1,0.5,0.8,1.3,2.4
		c1.8,3.3,4.2,9.8,0.9,17.4c0,0-1.8-16-11.4-23.5c-9.6-7.5-19.6-18.7-13.7-32c0,0-7.1,3.7-8.4,7.1c0,0,9.1-28.3,21.7-25.6
		c0,0-8.4-10.7-21.5,3.2c0,0-16.7-3-21.9,11.6c0,0-3,23.1-12.1,23.7c0,0,8.4,2.3,14.8-4.1c0,0,11.2,29.7-3.7,39.7
		c0,0-6.8-30.1-32.4-43.8c-25.6-13.7-48.6-30.8-8-67.6c0,0-22.6,7.8-28.3,25.6c0,0-8.4-49.5,39.5-76.5c0,0-67.8,15.5-45.2,107.3
		c0,0-54.8-39.9,0.2-156.1c0,0-97,115.5,1.8,186.3c0,0-37.7-1.4-50.9-43.1C279,240.5,272.1,281.1,295.7,308.3z M410.4,246.1
		c3.9-8,11.1-4.5,11.1-4.5C416.7,247.7,410.4,246.1,410.4,246.1z M542,368.1H300.3v7.9h103.5c0,0-8.2,32.9-47.2,44.1
		c0,0,32-3.3,51.1-26c0,0-37.4,61.3,18.3,104.2c0,0-49.3-46.9,6.7-109.6c0,0,14.3,34.7-9.1,60.6c0,0,26.8-12.5,28-64.2
		c0,0,20.1,52.3-18.3,84c0,0,37.1-18.9,36.5-73c0,0,16.1,22.2,5.8,57.5c0,0,21.6-55.1,3.3-77.6h63V368.1z"/>
	<rect x="300.3" y="323.1" class="st1" width="241.7" height="53.2"/>
	<text transform="matrix(1 0 0 1 301.8642 362.0537)" class="st2 st3 st4 st5">ANKA</text>
</g>
</svg>
