<?xml version="1.0" encoding="utf-8"?>
<!-- Generator: Adobe Illustrator 24.3.2, SVG Export Plug-In . SVG Version: 6.00 Build 0)  -->
<svg version="1.1" id="Layer_1" xmlns="http://www.w3.org/2000/svg" xmlns:xlink="http://www.w3.org/1999/xlink" x="0px" y="0px"
	 viewBox="0 0 841.9 595.3" style="enable-background:new 0 0 841.9 595.3;" xml:space="preserve">
<style type="text/css">
	.st0{fill:#404041;}
	.st1{fill:url(#SVGID_1_);}
	.st2{fill:url(#SVGID_2_);}
	.st3{fill:url(#SVGID_3_);}
	.st4{fill:url(#SVGID_4_);}
	.st5{fill:url(#SVGID_5_);}
	.st6{fill:url(#SVGID_6_);}
	.st7{fill:#EC1C24;}
	.st8{fill:url(#SVGID_7_);}
	.st9{fill:url(#SVGID_8_);}
	.st10{fill:url(#SVGID_9_);}
	.st11{fill:url(#SVGID_10_);}
</style>
<g>
	<g>
		<path class="st0" d="M386.6,440l-33.6,0c-7.9,0-11.8-3.9-11.8-11.6v-16.2c0-4.5,2.4-7.9,7.2-10.2c4.4-1.5,8.9-3,13.4-4.5
			c4.8-1.9,7.2-4.6,7.2-8.2v-5.2c0-2-1-3.1-3.1-3.1h-7.7c-2,0-3.1,1-3.1,3.1v2.4c0,2.9-1.7,4.6-5,5h-12.5c2.3,0,3.5-1.2,3.5-3.5V379
			c0-7.6,3.9-11.4,11.8-11.4h18.1c7.9,0,11.8,3.8,11.8,11.4v57.5C382.9,438.9,384.1,440,386.6,440z M368.9,423.3V408
			c-4.7,1.7-8.1,3.2-10.1,4.5c-2.5,1.6-3.7,3.5-3.7,5.5v5.2c0,2,1,3.1,3.1,3.1h7.7C367.9,426.3,368.9,425.3,368.9,423.3z"/>
		<path class="st0" d="M431.3,424.5v-52.2c0-1.1,0.5-2.1,1.4-3.1c1.1-1.1,2.4-1.6,4.1-1.6h11.8c-2.3,0-3.4,1.1-3.5,3.3v1v64.1
			c0,2.2,1.2,3.3,3.5,3.3l-11.8-8.4c-2,0-3.8-0.9-5.3-2.6L431.3,424.5z"/>
		<path class="st0" d="M407.8,437.4c-1.5,1.8-3.3,2.6-5.3,2.6h-11.8c2.3,0,3.5-1.1,3.5-3.3v-64.8v-1c0-2.2,2.4-3.3,0.1-3.3l8.1,2.3
			c1.7,0,3,0.5,4.1,1.6c0.9,0.9,1.4,2,1.4,3.1v42.5L407.8,437.4z"/>
		<path class="st0" d="M513.2,367.7c-2.4,0-3.6,1.2-3.6,3.5v19.5c0,4.9-1.6,8.3-4.7,10c3.1,1.8,4.7,5.1,4.7,10.1v25.7
			c0,2.3,1.2,3.5,3.5,3.5h-12.4c-3.2,0-4.8-1.6-4.8-4.8v-22.6c0-2.2-0.7-3.2-2.1-3.2c-0.3,0-0.6,0.1-0.9,0.2l-7.9,3.3
			c-1.9,1.1-2.9,2.5-2.9,4.1v18.3c0,3.2-1.6,4.8-4.8,4.8h-12.4c2.3,0,3.5-1.2,3.5-3.5v-65.3c0-2.3-1.2-3.5-3.5-3.5h12.4
			c3.2,0,4.8,1.6,4.8,4.8v24.6c9.2-2.9,13.9-6.7,13.9-11.3v-13.3c0-3.2,1.6-4.8,4.8-4.8H513.2z"/>
		<path class="st0" d="M567.9,440l-33.6,0c-7.9,0-11.8-3.9-11.8-11.6v-16.2c0-4.5,2.4-7.9,7.2-10.2c4.4-1.5,8.9-3,13.4-4.5
			c4.8-1.9,7.2-4.6,7.2-8.2v-5.2c0-2-1-3.1-3.1-3.1h-7.7c-2,0-3.1,1-3.1,3.1v2.4c0,2.9-1.7,4.6-5,5H519c2.3,0,3.5-1.2,3.5-3.5V379
			c0-7.6,3.9-11.4,11.8-11.4h18.1c7.9,0,11.8,3.8,11.8,11.4v57.5C564.2,438.9,565.4,440,567.9,440z M550.2,423.3V408
			c-4.7,1.7-8.1,3.2-10.1,4.5c-2.5,1.6-3.7,3.5-3.7,5.5v5.2c0,2,1,3.1,3.1,3.1h7.7C549.2,426.3,550.2,425.3,550.2,423.3z"/>
	</g>
	<g>
		<linearGradient id="SVGID_1_" gradientUnits="userSpaceOnUse" x1="336.507" y1="330.9908" x2="501.1678" y2="330.9908">
			<stop  offset="0.4622" style="stop-color:#E6252D"/>
			<stop  offset="0.9011" style="stop-color:#FDCD0D"/>
		</linearGradient>
		<path class="st1" d="M501.2,347.7c0,0-3.1-18.8-24.1-20.8c-21-2.1-55.4,7.2-55.4,7.2s-46.2,16.5-76.5,1.4c0,0,12.4,3.6,30.3,1.6
			c0,0-30.9,2.3-38.9-22.8c0,0,8,19.8,47.6,15.7C423.7,325.8,490.7,300.9,501.2,347.7z"/>
		<linearGradient id="SVGID_2_" gradientUnits="userSpaceOnUse" x1="337.3314" y1="313.447" x2="411.3154" y2="313.447">
			<stop  offset="0.4622" style="stop-color:#E6252D"/>
			<stop  offset="0.9011" style="stop-color:#FDCD0D"/>
		</linearGradient>
		<path class="st2" d="M411.3,317.2c0,0-7.2-2.3-17.1-1.4c-9.9,0.8-36.9,6-48,0.6c0,0,11.7,2.2,18.1,0.8c0,0-17.9,0.6-27-9.1
			c0,0,8,8,29.7,4.1C388.6,308.3,404,310.1,411.3,317.2z"/>
		<linearGradient id="SVGID_3_" gradientUnits="userSpaceOnUse" x1="338.98" y1="294.6428" x2="437.8833" y2="294.6428">
			<stop  offset="0.4622" style="stop-color:#E6252D"/>
			<stop  offset="0.9011" style="stop-color:#FDCD0D"/>
		</linearGradient>
		<path class="st3" d="M437.9,283.3c0,0-14.4,15.6-29.1,17.7c-12.8,1.8-22.3,1.1-33.7,0.1c-10-0.8-25,3.5-29,4.1
			c0,0,17.6-8.2,33.9-7.2c0,0-16.7-5.3-41,8c0,0,11.7-12.7,43.4-12.9S431.3,289.3,437.9,283.3z"/>
		<linearGradient id="SVGID_4_" gradientUnits="userSpaceOnUse" x1="336.507" y1="270.3636" x2="455.4725" y2="270.3636">
			<stop  offset="0.4622" style="stop-color:#E6252D"/>
			<stop  offset="0.9011" style="stop-color:#FDCD0D"/>
		</linearGradient>
		<path class="st4" d="M455.4,237.4c0,0,2.1,19.6-19,34.1c-23.8,16.4-63.4,18.9-75.6,20.1c0,0,10.9-1.6,33.4-10.3
			c0,0-37.1,4.4-57.7,22c0,0,8.4-15.2,44.1-26.7S450.5,256,455.4,237.4z"/>
		<linearGradient id="SVGID_5_" gradientUnits="userSpaceOnUse" x1="336.507" y1="217.2203" x2="482.0542" y2="217.2203">
			<stop  offset="0.4622" style="stop-color:#E6252D"/>
			<stop  offset="0.9011" style="stop-color:#FDCD0D"/>
		</linearGradient>
		<path class="st5" d="M479.7,136.7c0,0,7.6,27.4-35.2,63.9s-97.8,64.8-108,97.2c0,0,18.8-30.1,57.3-44.3c0,0-39,24.9-49,37.1
			c0,0,20.2-15.1,40.3-26.1c25-13.7,57-29.7,77.7-52.6C476.9,196.3,486.7,177.7,479.7,136.7z"/>
		<linearGradient id="SVGID_6_" gradientUnits="userSpaceOnUse" x1="332.7751" y1="223.9304" x2="423.3095" y2="223.9304">
			<stop  offset="0.4622" style="stop-color:#E6252D"/>
			<stop  offset="0.9011" style="stop-color:#FDCD0D"/>
		</linearGradient>
		<path class="st6" d="M351.8,256.4c0,0-12.8,20.8-12.8,30.5c0,0,0-10.1,29.3-33.4c29.3-23.3,71.5-55,48.4-105.9
			c0,0,8.9,24.1-18.8,50.9s-75.6,65.6-63.1,101.8C334.8,300.3,329.9,283.8,351.8,256.4z"/>
		<path class="st7" d="M352.6,229.9c0,0-2.8,24.1-32.8,20.5c-24.9-3-26.2,0.7-28,3.5c0,0-14.4,0.5-18,6.2c0,0,24.2-6.7,35.3,20.9
			c0,0-0.6-13-2.6-17.6c0,0,14.7,6.3,21.2,16.3c0,0-6.5-14-12.7-18.1C314.9,261.5,352.6,256.7,352.6,229.9z"/>
		
			<linearGradient id="SVGID_7_" gradientUnits="userSpaceOnUse" x1="369.3324" y1="399.4747" x2="481.8024" y2="399.4747" gradientTransform="matrix(0.9968 7.993390e-02 -7.993390e-02 0.9968 32.3465 -30.5863)">
			<stop  offset="0.4622" style="stop-color:#E6252D"/>
			<stop  offset="0.9011" style="stop-color:#FDCD0D"/>
		</linearGradient>
		<path class="st8" d="M372.7,345.5c0,0,24.9-0.9,51,53s52.8,59.2,52.8,59.2s-42-7.8-64.7-50.1C394.3,375,388.8,349.8,372.7,345.5z"
			/>
		<path class="st7" d="M314.8,276.4c0,0-8.7,44,8.9,64.8c25.4,30,45.4,9.9,67,38c0,0,0.6-24.1-28.8-33.8
			c-23.7-7.8-38.7-34.8-34-57.2c0,0-8.9,22.2,3.1,47.2C331,335.5,312.1,296,314.8,276.4z"/>
		<path class="st7" d="M323.2,313.4c0,0-8.9-32.5-5.8-41.6c0,0,10.4,9.7,9.7,10.6C324,286.3,321.8,306.6,323.2,313.4z"/>
		<path class="st7" d="M310.6,299.4c0,0,0.6-24.7-1.5-32.6c0,0,2.5,0.2,5.9,3.6C315,270.4,311.5,271.9,310.6,299.4z"/>
		<path class="st7" d="M320.6,263.1c0,0,14-3.9,19-7.2c0,0-8.8,17.7-8.4,24.1C331.2,280,323.5,264.8,320.6,263.1z"/>
		<linearGradient id="SVGID_8_" gradientUnits="userSpaceOnUse" x1="379.1663" y1="254.644" x2="442.4642" y2="254.644">
			<stop  offset="0.4622" style="stop-color:#E6252D"/>
			<stop  offset="0.9011" style="stop-color:#FDCD0D"/>
		</linearGradient>
		<path class="st9" d="M379.2,271.9c0,0,47-21,63.3-34.4c0,0-3.4,10.2-17.7,18.5S379.2,271.9,379.2,271.9z"/>
		<linearGradient id="SVGID_9_" gradientUnits="userSpaceOnUse" x1="344.7985" y1="306.8212" x2="386.6884" y2="306.8212">
			<stop  offset="0.4622" style="stop-color:#E6252D"/>
			<stop  offset="0.9011" style="stop-color:#FDCD0D"/>
		</linearGradient>
		<path class="st10" d="M344.8,308.1c0,0,7.5-4.3,17.1-4s19.8,2.8,24.8,1.9c0,0-13.8,3-22.1,3.3S349.2,309.7,344.8,308.1z"/>
		<linearGradient id="SVGID_10_" gradientUnits="userSpaceOnUse" x1="346.1049" y1="322.4248" x2="399.3005" y2="322.4248">
			<stop  offset="0.4622" style="stop-color:#E6252D"/>
			<stop  offset="0.9011" style="stop-color:#FDCD0D"/>
		</linearGradient>
		<path class="st11" d="M346.1,320.2c0,0,7.2,2.4,21.2,2.2c15.6-0.2,32-4.4,32-4.4s-10,5.4-17.5,5.4c0,0,9.6,2.1,17.5,0.9
			C399.3,324.4,364,332,346.1,320.2z"/>
	</g>
</g>
</svg>
